<svg width="78" height="20" viewBox="0 0 78 20" fill="none" xmlns="http://www.w3.org/2000/svg">
    <path d="M19.1018 9.96189C19.1018 9.1606 19.0368 8.57586 18.8961 7.96948H9.74609V11.5861H15.1169C15.0087 12.4849 14.424 13.8385 13.1245 14.748L13.1063 14.8691L15.9994 17.1103L16.1998 17.1303C18.0406 15.4302 19.1018 12.9289 19.1018 9.96189Z" fill="#4285F4"/>
    <path d="M9.74511 19.4929C12.3764 19.4929 14.5853 18.6266 16.1988 17.1323L13.1235 14.75C12.3006 15.3239 11.1961 15.7246 9.74511 15.7246C7.16797 15.7246 4.98065 14.0246 4.20094 11.6748L4.08665 11.6845L1.0784 14.0126L1.03906 14.122C2.64165 17.3055 5.93349 19.4929 9.74511 19.4929Z" fill="#34A853"/>
    <path d="M4.20137 11.6745C3.99564 11.0681 3.87657 10.4184 3.87657 9.74706C3.87657 9.07566 3.99564 8.42598 4.19055 7.8196L4.1851 7.69046L1.13916 5.32495L1.0395 5.37235C0.378998 6.69343 0 8.17695 0 9.74706C0 11.3172 0.378998 12.8006 1.0395 14.1217L4.20137 11.6745Z" fill="#FBBC05"/>
    <path d="M9.74511 3.76825C11.5751 3.76825 12.8095 4.55872 13.5134 5.2193L16.2638 2.53384C14.5746 0.963731 12.3764 0 9.74511 0C5.93348 0 2.64165 2.18732 1.03906 5.37084L4.19011 7.81809C4.98065 5.46833 7.16797 3.76825 9.74511 3.76825Z" fill="#EB4335"/>
    <path d="M32.336 15.16C31.5573 15.16 30.8267 15.016 30.144 14.728C29.472 14.4293 28.88 14.0187 28.368 13.496C27.8667 12.9733 27.472 12.3653 27.184 11.672C26.896 10.9787 26.752 10.232 26.752 9.432C26.752 8.632 26.896 7.89067 27.184 7.208C27.472 6.51467 27.872 5.90667 28.384 5.384C28.896 4.86133 29.4933 4.456 30.176 4.168C30.8693 3.88 31.6213 3.736 32.432 3.736C33.3173 3.736 34.1333 3.90667 34.88 4.248C35.6267 4.58933 36.2507 5.08 36.752 5.72L35.712 6.76C35.36 6.248 34.896 5.85867 34.32 5.592C33.744 5.31467 33.1147 5.176 32.432 5.176C31.6213 5.176 30.9013 5.35733 30.272 5.72C29.6533 6.08267 29.168 6.584 28.816 7.224C28.4747 7.864 28.304 8.6 28.304 9.432C28.304 10.2747 28.48 11.016 28.832 11.656C29.184 12.296 29.6587 12.7973 30.256 13.16C30.8533 13.5227 31.536 13.704 32.304 13.704C33.0827 13.704 33.7547 13.5547 34.32 13.256C34.896 12.9573 35.3387 12.52 35.648 11.944C35.9573 11.3573 36.112 10.6427 36.112 9.8L37.024 10.456H32.224V9.08H37.664V9.304C37.664 10.5947 37.4347 11.6773 36.976 12.552C36.528 13.416 35.8987 14.0667 35.088 14.504C34.288 14.9413 33.3707 15.16 32.336 15.16ZM42.903 15.16C42.1563 15.16 41.4843 14.984 40.887 14.632C40.2897 14.28 39.815 13.8053 39.463 13.208C39.111 12.6 38.935 11.9227 38.935 11.176C38.935 10.44 39.111 9.77867 39.463 9.192C39.815 8.59467 40.2897 8.12 40.887 7.768C41.4843 7.416 42.1563 7.24 42.903 7.24C43.639 7.24 44.3057 7.416 44.903 7.768C45.511 8.10933 45.991 8.57867 46.343 9.176C46.695 9.77333 46.871 10.44 46.871 11.176C46.871 11.9227 46.695 12.6 46.343 13.208C45.991 13.8053 45.511 14.28 44.903 14.632C44.3057 14.984 43.639 15.16 42.903 15.16ZM42.903 13.768C43.383 13.768 43.8097 13.656 44.183 13.432C44.5563 13.208 44.8497 12.904 45.063 12.52C45.2763 12.1253 45.383 11.6773 45.383 11.176C45.383 10.6853 45.271 10.248 45.047 9.864C44.8337 9.48 44.5403 9.18133 44.167 8.968C43.8043 8.744 43.383 8.632 42.903 8.632C42.423 8.632 41.9963 8.744 41.623 8.968C41.2497 9.18133 40.9563 9.48 40.743 9.864C40.5297 10.248 40.423 10.6853 40.423 11.176C40.423 11.6773 40.5297 12.1253 40.743 12.52C40.9563 12.904 41.2497 13.208 41.623 13.432C41.9963 13.656 42.423 13.768 42.903 13.768ZM51.9655 15.16C51.2188 15.16 50.5468 14.984 49.9495 14.632C49.3522 14.28 48.8775 13.8053 48.5255 13.208C48.1735 12.6 47.9975 11.9227 47.9975 11.176C47.9975 10.44 48.1735 9.77867 48.5255 9.192C48.8775 8.59467 49.3522 8.12 49.9495 7.768C50.5468 7.416 51.2188 7.24 51.9655 7.24C52.7015 7.24 53.3682 7.416 53.9655 7.768C54.5735 8.10933 55.0535 8.57867 55.4055 9.176C55.7575 9.77333 55.9335 10.44 55.9335 11.176C55.9335 11.9227 55.7575 12.6 55.4055 13.208C55.0535 13.8053 54.5735 14.28 53.9655 14.632C53.3682 14.984 52.7015 15.16 51.9655 15.16ZM51.9655 13.768C52.4455 13.768 52.8722 13.656 53.2455 13.432C53.6188 13.208 53.9122 12.904 54.1255 12.52C54.3388 12.1253 54.4455 11.6773 54.4455 11.176C54.4455 10.6853 54.3335 10.248 54.1095 9.864C53.8962 9.48 53.6028 9.18133 53.2295 8.968C52.8668 8.744 52.4455 8.632 51.9655 8.632C51.4855 8.632 51.0588 8.744 50.6855 8.968C50.3122 9.18133 50.0188 9.48 49.8055 9.864C49.5922 10.248 49.4855 10.6853 49.4855 11.176C49.4855 11.6773 49.5922 12.1253 49.8055 12.52C50.0188 12.904 50.3122 13.208 50.6855 13.432C51.0588 13.656 51.4855 13.768 51.9655 13.768ZM60.708 18.344C59.9293 18.344 59.236 18.2 58.628 17.912C58.0307 17.624 57.5507 17.2187 57.188 16.696L58.116 15.752C58.4253 16.1467 58.7933 16.4453 59.22 16.648C59.6467 16.8613 60.1533 16.968 60.74 16.968C61.5187 16.968 62.132 16.76 62.58 16.344C63.0387 15.9387 63.268 15.3893 63.268 14.696V12.808L63.524 11.096L63.268 9.4V7.4H64.708V14.696C64.708 15.4213 64.5373 16.056 64.196 16.6C63.8653 17.144 63.396 17.5707 62.788 17.88C62.1907 18.1893 61.4973 18.344 60.708 18.344ZM60.708 14.872C60.0147 14.872 59.3907 14.7067 58.836 14.376C58.292 14.0453 57.86 13.592 57.54 13.016C57.22 12.4293 57.06 11.7733 57.06 11.048C57.06 10.3227 57.22 9.67733 57.54 9.112C57.86 8.536 58.292 8.08267 58.836 7.752C59.3907 7.41067 60.0147 7.24 60.708 7.24C61.3053 7.24 61.8333 7.35733 62.292 7.592C62.7507 7.82667 63.1133 8.15733 63.38 8.584C63.6573 9 63.8067 9.49067 63.828 10.056V12.072C63.796 12.6267 63.6413 13.1173 63.364 13.544C63.0973 13.96 62.7347 14.2853 62.276 14.52C61.8173 14.7547 61.2947 14.872 60.708 14.872ZM60.996 13.512C61.4653 13.512 61.876 13.4107 62.228 13.208C62.5907 13.0053 62.868 12.7227 63.06 12.36C63.252 11.9867 63.348 11.5547 63.348 11.064C63.348 10.5733 63.2467 10.1467 63.044 9.784C62.852 9.41067 62.58 9.12267 62.228 8.92C61.876 8.70667 61.46 8.6 60.98 8.6C60.5 8.6 60.0787 8.70667 59.716 8.92C59.3533 9.12267 59.0653 9.41067 58.852 9.784C58.6493 10.1467 58.548 10.568 58.548 11.048C58.548 11.528 58.6493 11.9547 58.852 12.328C59.0653 12.7013 59.3533 12.9947 59.716 13.208C60.0893 13.4107 60.516 13.512 60.996 13.512ZM66.8216 15V3.576H68.2616V15H66.8216ZM73.8885 15.16C73.1312 15.16 72.4485 14.9893 71.8405 14.648C71.2325 14.296 70.7525 13.8213 70.4005 13.224C70.0485 12.6267 69.8725 11.9493 69.8725 11.192C69.8725 10.4453 70.0432 9.77333 70.3845 9.176C70.7365 8.57867 71.2058 8.10933 71.7925 7.768C72.3898 7.416 73.0565 7.24 73.7925 7.24C74.4965 7.24 75.1152 7.4 75.6485 7.72C76.1925 8.04 76.6138 8.48267 76.9125 9.048C77.2218 9.61333 77.3765 10.2533 77.3765 10.968C77.3765 11.0747 77.3712 11.192 77.3605 11.32C77.3498 11.4373 77.3285 11.576 77.2965 11.736H70.8805V10.536H76.5285L76.0005 11C76.0005 10.488 75.9098 10.056 75.7285 9.704C75.5472 9.34133 75.2912 9.064 74.9605 8.872C74.6298 8.66933 74.2298 8.568 73.7605 8.568C73.2698 8.568 72.8378 8.67467 72.4645 8.888C72.0912 9.10133 71.8032 9.4 71.6005 9.784C71.3978 10.168 71.2965 10.6213 71.2965 11.144C71.2965 11.6773 71.4032 12.1467 71.6165 12.552C71.8298 12.9467 72.1338 13.256 72.5285 13.48C72.9232 13.6933 73.3765 13.8 73.8885 13.8C74.3152 13.8 74.7045 13.7253 75.0565 13.576C75.4192 13.4267 75.7285 13.2027 75.9845 12.904L76.9125 13.848C76.5498 14.2747 76.1018 14.6 75.5685 14.824C75.0458 15.048 74.4858 15.16 73.8885 15.16Z" fill="#949494"/>
</svg>