<svg width="110" height="35" viewBox="0 0 110 35" fill="none" xmlns="http://www.w3.org/2000/svg">
<path d="M42.128 28.28C41.1573 28.28 40.28 28.0747 39.496 27.664C38.712 27.2533 38.0867 26.6933 37.62 25.984C37.1533 25.2747 36.9013 24.4813 36.864 23.604V18.788C36.9013 17.9107 37.1533 17.1267 37.62 16.436C38.1053 15.7267 38.74 15.176 39.524 14.784C40.308 14.392 41.176 14.196 42.128 14.196C43.3787 14.196 44.4987 14.504 45.488 15.12C46.4773 15.736 47.252 16.576 47.812 17.64C48.3907 18.704 48.68 19.908 48.68 21.252C48.68 22.5773 48.3907 23.772 47.812 24.836C47.252 25.9 46.4773 26.74 45.488 27.356C44.4987 27.972 43.3787 28.28 42.128 28.28ZM34.624 28V7.756H38.292V17.808L37.676 21.056L38.264 24.36V28H34.624ZM41.512 24.892C42.184 24.892 42.772 24.7427 43.276 24.444C43.7987 24.1267 44.2 23.6973 44.48 23.156C44.7787 22.596 44.928 21.952 44.928 21.224C44.928 20.5147 44.7787 19.8893 44.48 19.348C44.2 18.788 43.7987 18.3587 43.276 18.06C42.7533 17.7427 42.156 17.584 41.484 17.584C40.812 17.584 40.2147 17.7427 39.692 18.06C39.188 18.3587 38.7867 18.788 38.488 19.348C38.208 19.8893 38.068 20.5147 38.068 21.224C38.068 21.952 38.208 22.596 38.488 23.156C38.7867 23.6973 39.1973 24.1267 39.72 24.444C40.2427 24.7427 40.84 24.892 41.512 24.892ZM51.0849 28V14.476H54.7529V28H51.0849ZM54.7529 20.524L53.3249 19.572C53.4929 17.9107 53.9783 16.604 54.7809 15.652C55.5836 14.6813 56.7409 14.196 58.2529 14.196C58.9063 14.196 59.4943 14.308 60.0169 14.532C60.5396 14.7373 61.0156 15.0827 61.4449 15.568L59.1489 18.2C58.9436 17.976 58.6916 17.808 58.3929 17.696C58.1129 17.584 57.7863 17.528 57.4129 17.528C56.6289 17.528 55.9849 17.78 55.4809 18.284C54.9956 18.7693 54.7529 19.516 54.7529 20.524ZM68.0066 28.28C66.7746 28.28 65.6639 27.972 64.6746 27.356C63.6852 26.74 62.9106 25.9 62.3506 24.836C61.7906 23.772 61.5106 22.5773 61.5106 21.252C61.5106 19.908 61.7906 18.704 62.3506 17.64C62.9106 16.576 63.6852 15.736 64.6746 15.12C65.6639 14.504 66.7746 14.196 68.0066 14.196C68.9772 14.196 69.8452 14.392 70.6106 14.784C71.3759 15.176 71.9826 15.7267 72.4306 16.436C72.8972 17.1267 73.1492 17.9107 73.1866 18.788V23.66C73.1492 24.556 72.8972 25.3493 72.4306 26.04C71.9826 26.7307 71.3759 27.2813 70.6106 27.692C69.8452 28.084 68.9772 28.28 68.0066 28.28ZM68.6786 24.892C69.7052 24.892 70.5359 24.556 71.1706 23.884C71.8052 23.1933 72.1226 22.3067 72.1226 21.224C72.1226 20.5147 71.9732 19.8893 71.6746 19.348C71.3946 18.788 70.9932 18.3587 70.4706 18.06C69.9666 17.7427 69.3692 17.584 68.6786 17.584C68.0066 17.584 67.4092 17.7427 66.8866 18.06C66.3826 18.3587 65.9812 18.788 65.6826 19.348C65.4026 19.8893 65.2626 20.5147 65.2626 21.224C65.2626 21.952 65.4026 22.596 65.6826 23.156C65.9812 23.6973 66.3826 24.1267 66.8866 24.444C67.4092 24.7427 68.0066 24.892 68.6786 24.892ZM71.9266 28V24.36L72.5146 21.056L71.9266 17.808V14.476H75.5666V28H71.9266ZM87.9115 28V20.244C87.9115 19.4413 87.6595 18.788 87.1555 18.284C86.6515 17.78 85.9982 17.528 85.1955 17.528C84.6728 17.528 84.2062 17.64 83.7955 17.864C83.3848 18.088 83.0582 18.4053 82.8155 18.816C82.5915 19.2267 82.4795 19.7027 82.4795 20.244L81.0515 19.516C81.0515 18.452 81.2755 17.528 81.7235 16.744C82.1902 15.9413 82.8248 15.316 83.6275 14.868C84.4488 14.42 85.3728 14.196 86.3995 14.196C87.3888 14.196 88.2755 14.448 89.0595 14.952C89.8435 15.4373 90.4595 16.0813 90.9075 16.884C91.3555 17.668 91.5795 18.5173 91.5795 19.432V28H87.9115ZM78.8115 28V14.476H82.4795V28H78.8115ZM100.246 28.28C98.9955 28.28 97.8755 27.972 96.8862 27.356C95.8968 26.74 95.1128 25.9 94.5342 24.836C93.9742 23.772 93.6942 22.5773 93.6942 21.252C93.6942 19.908 93.9742 18.704 94.5342 17.64C95.1128 16.576 95.8875 15.736 96.8582 15.12C97.8475 14.504 98.9768 14.196 100.246 14.196C101.217 14.196 102.085 14.392 102.85 14.784C103.634 15.176 104.259 15.7267 104.726 16.436C105.211 17.1267 105.473 17.9107 105.51 18.788V23.604C105.473 24.4813 105.221 25.2747 104.754 25.984C104.287 26.6933 103.662 27.2533 102.878 27.664C102.094 28.0747 101.217 28.28 100.246 28.28ZM100.862 24.892C101.553 24.892 102.15 24.7427 102.654 24.444C103.177 24.1267 103.578 23.6973 103.858 23.156C104.157 22.596 104.306 21.952 104.306 21.224C104.306 20.5147 104.157 19.8893 103.858 19.348C103.578 18.788 103.177 18.3587 102.654 18.06C102.15 17.7427 101.562 17.584 100.89 17.584C100.199 17.584 99.5928 17.7427 99.0702 18.06C98.5662 18.3773 98.1648 18.8067 97.8662 19.348C97.5862 19.8893 97.4462 20.5147 97.4462 21.224C97.4462 21.952 97.5862 22.596 97.8662 23.156C98.1648 23.6973 98.5755 24.1267 99.0982 24.444C99.6208 24.7427 100.209 24.892 100.862 24.892ZM107.75 28H104.11V24.36L104.698 21.056L104.082 17.808V7.756H107.75V28Z" fill="#6366F1"/>
<path fill-rule="evenodd" clip-rule="evenodd" d="M14 32C21.732 32 28 25.732 28 18C28 10.268 21.732 4 14 4C6.268 4 0 10.268 0 18C0 25.732 6.268 32 14 32ZM18.3675 10.5218C18.5801 9.76663 17.8473 9.32009 17.178 9.79691L7.83518 16.4527C7.10935 16.9698 7.22352 18 8.00668 18H10.4669V17.9809H15.2618L11.3548 19.3594L9.6325 25.4782C9.41991 26.2334 10.1527 26.6799 10.822 26.2031L20.1648 19.5473C20.8907 19.0302 20.7764 18 19.9933 18H16.2625L18.3675 10.5218Z" fill="#6366F1"/>
</svg>
